<mxfile host="Electron" agent="Mozilla/5.0 (X11; Linux x86_64) AppleWebKit/537.36 (KHTML, like Gecko) draw.io/24.7.5 Chrome/126.0.6478.183 Electron/31.3.0 Safari/537.36" version="24.7.5">
  <diagram name="Page-1" id="75FVxJW25G1xzwWjIL_C">
    <mxGraphModel dx="809" dy="481" grid="1" gridSize="10" guides="1" tooltips="1" connect="1" arrows="1" fold="1" page="1" pageScale="1" pageWidth="850" pageHeight="1100" math="1" shadow="0">
      <root>
        <mxCell id="0" />
        <mxCell id="1" parent="0" />
        <mxCell id="9yOJkQoh7nvftXHEcmhC-2" value="" style="verticalLabelPosition=bottom;shadow=0;dashed=0;align=center;html=1;verticalAlign=top;shape=mxgraph.electrical.transistors.pmos;pointerEvents=1;fillColor=#f8cecc;strokeColor=#b85450;strokeWidth=2;" parent="1" vertex="1">
          <mxGeometry x="250" y="278" width="60" height="100" as="geometry" />
        </mxCell>
        <mxCell id="9yOJkQoh7nvftXHEcmhC-3" value="" style="verticalLabelPosition=bottom;shadow=0;dashed=0;align=center;html=1;verticalAlign=top;shape=stencil(pVXbcoMgFPwaHpsRyEUfU9u+9huIIZUJgoMkaf++R9E2qGGMzjjOnD26uy4cRDStclZyRCJWlTyziL4hQq7MCHaQABPo5A5MIlcqVnCHfJbcMCu0YhLwfVHCHbuHKmv0md/E0bZvC5VzI6zr3lrGuC7pO4r2ANYXTTOtFPgA0srr3PWBmwllPStCvThqsCQKbrlxeOv526t+2mqFtxuHIPLxnBoirzP0YjpPT1/sBDXcU5unBTCsncRTPm+1xaQfKV6iSmaqxsm4Kk0BebSlaHpg2fnL6Is6jnotWb17B42uXegr/7e18S2FUugIpFB3BG4a/hjWweUbp/A9JJNMZFJXPLBggA9yaNAH4dH0pA0PpHoSUrrjIaD6VPT+mOHFwU1jCHnYLfYwjcH3EC/OAa8XBxEvDqJnYk4S2D8Ld2SGix5FHD7Xxsak6z3c7c1rg3FpUPdbboBf);strokeWidth=2;" parent="1" vertex="1">
          <mxGeometry x="100" y="283" width="98" height="90" as="geometry" />
        </mxCell>
        <mxCell id="9yOJkQoh7nvftXHEcmhC-5" value="" style="pointerEvents=1;verticalLabelPosition=bottom;shadow=0;dashed=0;align=center;html=1;verticalAlign=top;shape=mxgraph.electrical.capacitors.capacitor_1;strokeColor=default;fontFamily=Helvetica;fontSize=12;fontColor=default;fillColor=default;direction=south;strokeWidth=2;" parent="1" vertex="1">
          <mxGeometry x="215" y="328" width="30" height="72" as="geometry" />
        </mxCell>
        <mxCell id="9yOJkQoh7nvftXHEcmhC-6" value="" style="endArrow=none;html=1;rounded=0;fontFamily=Helvetica;fontSize=12;fontColor=default;entryX=0;entryY=0.5;entryDx=0;entryDy=0;entryPerimeter=0;exitX=1.011;exitY=0.5;exitDx=0;exitDy=0;exitPerimeter=0;strokeWidth=2;" parent="1" source="9yOJkQoh7nvftXHEcmhC-3" target="9yOJkQoh7nvftXHEcmhC-2" edge="1">
          <mxGeometry width="50" height="50" relative="1" as="geometry">
            <mxPoint x="200" y="328" as="sourcePoint" />
            <mxPoint x="250" y="278" as="targetPoint" />
          </mxGeometry>
        </mxCell>
        <mxCell id="9yOJkQoh7nvftXHEcmhC-8" value="" style="pointerEvents=1;verticalLabelPosition=bottom;shadow=0;dashed=0;align=center;html=1;verticalAlign=top;shape=mxgraph.electrical.resistors.resistor_1;strokeColor=default;fontFamily=Helvetica;fontSize=12;fontColor=default;fillColor=default;direction=south;strokeWidth=2;" parent="1" vertex="1">
          <mxGeometry x="300" y="528" width="20" height="60" as="geometry" />
        </mxCell>
        <mxCell id="9yOJkQoh7nvftXHEcmhC-9" value="" style="pointerEvents=1;verticalLabelPosition=bottom;shadow=0;dashed=0;align=center;html=1;verticalAlign=top;shape=mxgraph.electrical.capacitors.capacitor_1;strokeColor=default;fontFamily=Helvetica;fontSize=12;fontColor=default;fillColor=default;direction=south;strokeWidth=2;" parent="1" vertex="1">
          <mxGeometry x="355" y="502" width="30" height="72" as="geometry" />
        </mxCell>
        <mxCell id="9yOJkQoh7nvftXHEcmhC-10" value="" style="endArrow=none;html=1;rounded=0;fontFamily=Helvetica;fontSize=12;fontColor=default;entryX=1;entryY=1;entryDx=0;entryDy=0;entryPerimeter=0;strokeWidth=2;" parent="1" target="9yOJkQoh7nvftXHEcmhC-2" edge="1">
          <mxGeometry width="50" height="50" relative="1" as="geometry">
            <mxPoint x="310" y="428" as="sourcePoint" />
            <mxPoint x="310" y="378" as="targetPoint" />
          </mxGeometry>
        </mxCell>
        <mxCell id="9yOJkQoh7nvftXHEcmhC-11" value="" style="endArrow=none;html=1;rounded=0;fontFamily=Helvetica;fontSize=12;fontColor=default;strokeWidth=2;" parent="1" edge="1">
          <mxGeometry width="50" height="50" relative="1" as="geometry">
            <mxPoint x="310" y="418" as="sourcePoint" />
            <mxPoint x="370" y="418" as="targetPoint" />
          </mxGeometry>
        </mxCell>
        <mxCell id="9yOJkQoh7nvftXHEcmhC-12" value="" style="endArrow=none;html=1;rounded=0;fontFamily=Helvetica;fontSize=12;fontColor=default;strokeWidth=2;" parent="1" edge="1">
          <mxGeometry width="50" height="50" relative="1" as="geometry">
            <mxPoint x="70" y="508" as="sourcePoint" />
            <mxPoint x="310" y="508" as="targetPoint" />
          </mxGeometry>
        </mxCell>
        <mxCell id="9yOJkQoh7nvftXHEcmhC-13" value="" style="endArrow=none;html=1;rounded=0;fontFamily=Helvetica;fontSize=12;fontColor=default;strokeWidth=2;" parent="1" edge="1">
          <mxGeometry width="50" height="50" relative="1" as="geometry">
            <mxPoint x="230" y="358" as="sourcePoint" />
            <mxPoint x="230" y="328" as="targetPoint" />
          </mxGeometry>
        </mxCell>
        <mxCell id="9yOJkQoh7nvftXHEcmhC-14" value="" style="endArrow=none;html=1;rounded=0;fontFamily=Helvetica;fontSize=12;fontColor=default;strokeWidth=2;" parent="1" edge="1">
          <mxGeometry width="50" height="50" relative="1" as="geometry">
            <mxPoint x="370" y="502" as="sourcePoint" />
            <mxPoint x="370" y="418" as="targetPoint" />
          </mxGeometry>
        </mxCell>
        <mxCell id="9yOJkQoh7nvftXHEcmhC-15" value="" style="endArrow=none;html=1;rounded=0;fontFamily=Helvetica;fontSize=12;fontColor=default;strokeWidth=2;" parent="1" edge="1">
          <mxGeometry width="50" height="50" relative="1" as="geometry">
            <mxPoint x="370" y="608" as="sourcePoint" />
            <mxPoint x="370" y="568" as="targetPoint" />
          </mxGeometry>
        </mxCell>
        <mxCell id="9yOJkQoh7nvftXHEcmhC-16" value="" style="endArrow=none;html=1;rounded=0;fontFamily=Helvetica;fontSize=12;fontColor=default;strokeWidth=2;" parent="1" edge="1">
          <mxGeometry width="50" height="50" relative="1" as="geometry">
            <mxPoint x="310" y="608" as="sourcePoint" />
            <mxPoint x="310" y="578" as="targetPoint" />
          </mxGeometry>
        </mxCell>
        <mxCell id="9yOJkQoh7nvftXHEcmhC-17" value="" style="endArrow=none;html=1;rounded=0;fontFamily=Helvetica;fontSize=12;fontColor=default;strokeWidth=4;" parent="1" edge="1">
          <mxGeometry width="50" height="50" relative="1" as="geometry">
            <mxPoint x="10" y="608" as="sourcePoint" />
            <mxPoint x="390" y="608" as="targetPoint" />
          </mxGeometry>
        </mxCell>
        <mxCell id="9yOJkQoh7nvftXHEcmhC-18" value="" style="endArrow=none;html=1;rounded=0;fontFamily=Helvetica;fontSize=12;fontColor=default;strokeWidth=2;" parent="1" edge="1">
          <mxGeometry width="50" height="50" relative="1" as="geometry">
            <mxPoint x="70" y="508" as="sourcePoint" />
            <mxPoint x="70" y="358" as="targetPoint" />
          </mxGeometry>
        </mxCell>
        <mxCell id="9yOJkQoh7nvftXHEcmhC-19" value="" style="endArrow=none;html=1;rounded=0;fontFamily=Helvetica;fontSize=12;fontColor=default;entryX=0;entryY=0.835;entryDx=0;entryDy=0;entryPerimeter=0;strokeWidth=2;" parent="1" target="9yOJkQoh7nvftXHEcmhC-3" edge="1">
          <mxGeometry width="50" height="50" relative="1" as="geometry">
            <mxPoint x="70" y="358" as="sourcePoint" />
            <mxPoint x="90" y="308" as="targetPoint" />
          </mxGeometry>
        </mxCell>
        <mxCell id="9yOJkQoh7nvftXHEcmhC-21" value="" style="endArrow=none;html=1;rounded=0;fontFamily=Helvetica;fontSize=12;fontColor=default;entryX=0;entryY=0.165;entryDx=0;entryDy=0;entryPerimeter=0;strokeWidth=2;" parent="1" target="9yOJkQoh7nvftXHEcmhC-3" edge="1">
          <mxGeometry width="50" height="50" relative="1" as="geometry">
            <mxPoint x="30" y="298" as="sourcePoint" />
            <mxPoint x="40" y="248" as="targetPoint" />
          </mxGeometry>
        </mxCell>
        <mxCell id="9yOJkQoh7nvftXHEcmhC-22" value="" style="endArrow=none;html=1;rounded=0;fontFamily=Helvetica;fontSize=12;fontColor=default;strokeWidth=4;" parent="1" edge="1">
          <mxGeometry width="50" height="50" relative="1" as="geometry">
            <mxPoint x="10" y="258" as="sourcePoint" />
            <mxPoint x="390" y="258" as="targetPoint" />
          </mxGeometry>
        </mxCell>
        <mxCell id="9yOJkQoh7nvftXHEcmhC-23" value="" style="endArrow=none;html=1;rounded=0;fontFamily=Helvetica;fontSize=12;fontColor=default;fillColor=#f8cecc;strokeColor=#b85450;strokeWidth=2;" parent="1" edge="1">
          <mxGeometry width="50" height="50" relative="1" as="geometry">
            <mxPoint x="310" y="281" as="sourcePoint" />
            <mxPoint x="310" y="258" as="targetPoint" />
          </mxGeometry>
        </mxCell>
        <mxCell id="9yOJkQoh7nvftXHEcmhC-24" value="" style="pointerEvents=1;verticalLabelPosition=bottom;shadow=0;dashed=0;align=center;html=1;verticalAlign=top;shape=mxgraph.electrical.resistors.resistor_1;strokeColor=default;fontFamily=Helvetica;fontSize=12;fontColor=default;fillColor=default;direction=south;strokeWidth=2;" parent="1" vertex="1">
          <mxGeometry x="300" y="428" width="20" height="60" as="geometry" />
        </mxCell>
        <mxCell id="9yOJkQoh7nvftXHEcmhC-25" value="" style="endArrow=none;html=1;rounded=0;fontFamily=Helvetica;fontSize=12;fontColor=default;exitX=0;exitY=0.5;exitDx=0;exitDy=0;exitPerimeter=0;strokeWidth=2;" parent="1" source="9yOJkQoh7nvftXHEcmhC-8" edge="1">
          <mxGeometry width="50" height="50" relative="1" as="geometry">
            <mxPoint x="260" y="538" as="sourcePoint" />
            <mxPoint x="310" y="488" as="targetPoint" />
          </mxGeometry>
        </mxCell>
        <mxCell id="9yOJkQoh7nvftXHEcmhC-26" value="" style="endArrow=none;html=1;rounded=0;fontFamily=Helvetica;fontSize=12;fontColor=default;strokeWidth=2;" parent="1" edge="1">
          <mxGeometry width="50" height="50" relative="1" as="geometry">
            <mxPoint x="230" y="418" as="sourcePoint" />
            <mxPoint x="310" y="418" as="targetPoint" />
          </mxGeometry>
        </mxCell>
        <mxCell id="9yOJkQoh7nvftXHEcmhC-27" value="" style="endArrow=none;html=1;rounded=0;fontFamily=Helvetica;fontSize=12;fontColor=default;entryX=1;entryY=0.5;entryDx=0;entryDy=0;entryPerimeter=0;strokeWidth=2;" parent="1" target="9yOJkQoh7nvftXHEcmhC-5" edge="1">
          <mxGeometry width="50" height="50" relative="1" as="geometry">
            <mxPoint x="230" y="418" as="sourcePoint" />
            <mxPoint x="280" y="368" as="targetPoint" />
          </mxGeometry>
        </mxCell>
        <mxCell id="9yOJkQoh7nvftXHEcmhC-28" value="" style="shape=waypoint;sketch=0;fillStyle=solid;size=6;pointerEvents=1;points=[];fillColor=none;resizable=0;rotatable=0;perimeter=centerPerimeter;snapToPoint=1;shadow=0;dashed=0;strokeColor=default;align=center;verticalAlign=top;fontFamily=Helvetica;fontSize=12;fontColor=default;strokeWidth=2;" parent="1" vertex="1">
          <mxGeometry x="300" y="408" width="20" height="20" as="geometry" />
        </mxCell>
        <mxCell id="9yOJkQoh7nvftXHEcmhC-29" value="" style="shape=waypoint;sketch=0;fillStyle=solid;size=6;pointerEvents=1;points=[];fillColor=none;resizable=0;rotatable=0;perimeter=centerPerimeter;snapToPoint=1;shadow=0;dashed=0;strokeColor=default;align=center;verticalAlign=top;fontFamily=Helvetica;fontSize=12;fontColor=default;strokeWidth=2;" parent="1" vertex="1">
          <mxGeometry x="220" y="318" width="20" height="20" as="geometry" />
        </mxCell>
        <mxCell id="9yOJkQoh7nvftXHEcmhC-30" value="" style="shape=waypoint;sketch=0;fillStyle=solid;size=6;pointerEvents=1;points=[];fillColor=none;resizable=0;rotatable=0;perimeter=centerPerimeter;snapToPoint=1;shadow=0;dashed=0;strokeColor=default;align=center;verticalAlign=top;fontFamily=Helvetica;fontSize=12;fontColor=default;strokeWidth=2;" parent="1" vertex="1">
          <mxGeometry x="300" y="498" width="20" height="20" as="geometry" />
        </mxCell>
        <mxCell id="9yOJkQoh7nvftXHEcmhC-31" value="" style="pointerEvents=1;verticalLabelPosition=bottom;shadow=0;dashed=0;align=center;html=1;verticalAlign=top;shape=mxgraph.electrical.capacitors.capacitor_1;strokeColor=#b85450;fontFamily=Helvetica;fontSize=12;fillColor=#f8cecc;direction=south;strokeWidth=2;" parent="1" vertex="1">
          <mxGeometry x="250" y="268" width="20" height="42" as="geometry" />
        </mxCell>
        <mxCell id="9yOJkQoh7nvftXHEcmhC-32" value="" style="endArrow=none;html=1;rounded=0;fontFamily=Helvetica;fontSize=12;fontColor=default;fillColor=#f8cecc;strokeColor=#b85450;strokeWidth=2;" parent="1" edge="1">
          <mxGeometry width="50" height="50" relative="1" as="geometry">
            <mxPoint x="260" y="328" as="sourcePoint" />
            <mxPoint x="260" y="308" as="targetPoint" />
          </mxGeometry>
        </mxCell>
        <mxCell id="9yOJkQoh7nvftXHEcmhC-33" value="" style="endArrow=none;html=1;rounded=0;fontFamily=Helvetica;fontSize=12;fontColor=default;exitX=0;exitY=0.5;exitDx=0;exitDy=0;exitPerimeter=0;fillColor=#f8cecc;strokeColor=#b85450;strokeWidth=2;" parent="1" source="9yOJkQoh7nvftXHEcmhC-31" edge="1">
          <mxGeometry width="50" height="50" relative="1" as="geometry">
            <mxPoint x="240" y="298" as="sourcePoint" />
            <mxPoint x="260" y="258" as="targetPoint" />
          </mxGeometry>
        </mxCell>
        <mxCell id="9yOJkQoh7nvftXHEcmhC-34" value="" style="shape=waypoint;sketch=0;fillStyle=solid;size=6;pointerEvents=1;points=[];fillColor=#f8cecc;resizable=0;rotatable=0;perimeter=centerPerimeter;snapToPoint=1;shadow=0;dashed=0;strokeColor=#b85450;align=center;verticalAlign=top;fontFamily=Helvetica;fontSize=12;strokeWidth=2;" parent="1" vertex="1">
          <mxGeometry x="250" y="318" width="20" height="20" as="geometry" />
        </mxCell>
        <mxCell id="9yOJkQoh7nvftXHEcmhC-35" value="&lt;font style=&quot;font-size: 14px;&quot;&gt;$$C_c$$&lt;/font&gt;" style="text;html=1;align=center;verticalAlign=middle;whiteSpace=wrap;rounded=0;fontFamily=Helvetica;fontSize=12;fontColor=default;strokeWidth=2;" parent="1" vertex="1">
          <mxGeometry x="194" y="373" width="41" height="20" as="geometry" />
        </mxCell>
        <mxCell id="9yOJkQoh7nvftXHEcmhC-36" value="&lt;font style=&quot;font-size: 14px;&quot;&gt;$$C_g$$&lt;/font&gt;" style="text;html=1;align=center;verticalAlign=middle;whiteSpace=wrap;rounded=0;fontFamily=Helvetica;fontSize=12;fontColor=default;strokeWidth=2;" parent="1" vertex="1">
          <mxGeometry x="209.5" y="278" width="41" height="20" as="geometry" />
        </mxCell>
        <mxCell id="9yOJkQoh7nvftXHEcmhC-37" value="&lt;font style=&quot;font-size: 14px;&quot;&gt;Vref&lt;/font&gt;" style="text;html=1;align=center;verticalAlign=middle;whiteSpace=wrap;rounded=0;fontFamily=Helvetica;fontSize=12;fontColor=default;strokeWidth=2;" parent="1" vertex="1">
          <mxGeometry x="10" y="278" width="41" height="20" as="geometry" />
        </mxCell>
        <mxCell id="9yOJkQoh7nvftXHEcmhC-38" value="" style="endArrow=none;dashed=1;html=1;dashPattern=1 3;strokeWidth=2;rounded=0;fontFamily=Helvetica;fontSize=12;fontColor=default;" parent="1" edge="1">
          <mxGeometry width="50" height="50" relative="1" as="geometry">
            <mxPoint x="270" y="240" as="sourcePoint" />
            <mxPoint x="270" y="200" as="targetPoint" />
          </mxGeometry>
        </mxCell>
        <mxCell id="9yOJkQoh7nvftXHEcmhC-39" value="&lt;font style=&quot;font-size: 14px;&quot;&gt;A2&lt;/font&gt;" style="text;html=1;align=center;verticalAlign=middle;whiteSpace=wrap;rounded=0;fontFamily=Helvetica;fontSize=12;fontColor=default;strokeWidth=2;" parent="1" vertex="1">
          <mxGeometry x="289.5" y="218" width="41" height="20" as="geometry" />
        </mxCell>
        <mxCell id="J62FUrCIRxVdZ3kRjZZb-1" value="$$g_mR_\text{ota}$$" style="text;html=1;align=center;verticalAlign=middle;whiteSpace=wrap;rounded=0;" vertex="1" parent="1">
          <mxGeometry x="110" y="313" width="60" height="30" as="geometry" />
        </mxCell>
      </root>
    </mxGraphModel>
  </diagram>
</mxfile>
